<svg width="283" height="174" viewBox="0 0 283 174" fill="none" xmlns="http://www.w3.org/2000/svg">
<path d="M91.1863 173.75L144.378 113.315V173.75H163.375V83.0978H144.378L64.5903 173.75H91.1863Z" fill="#FF0000"/>
<path d="M203.269 0L51.2923 173.75H5.69914L77.8883 88.7636L0 0H45.5932L100.685 64.2119L157.676 0H203.269Z" fill="#FF0000"/>
<path d="M172.874 49.1033V154.864H191.5V80.6594L239.142 136.055V154.816L172.874 154.864V173.75H258.361V126.416L191.5 49.1033H172.874Z" fill="#FF0000"/>
<path d="M172.874 49.1033V154.864H191.5V80.6594L239.142 136.055V154.816L172.874 154.864V173.75H258.361V126.416L191.5 49.1033H172.874Z" fill="#FF0000"/>
<path d="M281.491 93.3036L221.715 39.3719L282.145 40.1156L282.379 21.1199L191.734 20.0043L191.5 39L281.163 119.898L281.491 93.3036Z" fill="#FF0000"/>
<path d="M162.875 83.5977V173.25H144.878V111.99L144.003 112.985L90.96 173.25H65.6963L144.604 83.5977H162.875ZM45.3643 0.5L100.306 64.5371L100.679 64.9727L101.059 64.5439L157.9 0.5H202.168L51.0654 173.25H6.78027L78.2695 89.0869L78.5488 88.7578L78.2637 88.4336L1.10449 0.5H45.3643ZM281.872 21.6133L281.651 39.6084L221.722 38.8721L220.396 38.8555L221.38 39.7432L280.987 93.5225L280.676 118.785L192.002 38.7803L192.227 20.5098L281.872 21.6133ZM239.642 135.87L239.521 135.729L191.879 80.333L191 79.3115V154.351L173.374 154.363V49.6035H191.271L257.861 126.602V173.25H173.374V155.364H192V155.35L239.143 155.316H239.642V135.87Z" stroke="#C70000"/>
</svg>
